<?xml version="1.0" standalone="no"?>
<!DOCTYPE svg PUBLIC "-//W3C//DTD SVG 20010904//EN"
 "http://www.w3.org/TR/2001/REC-SVG-20010904/DTD/svg10.dtd">
<svg version="1.0" xmlns="http://www.w3.org/2000/svg"
 width="860.000000pt" height="899.000000pt" viewBox="0 0 860.000000 899.000000"
 preserveAspectRatio="xMidYMid meet">

<g transform="translate(0.000000,899.000000) scale(0.100000,-0.100000)"
fill="#000000" stroke="none">
<path d="M3895 8554 c-630 -64 -1259 -290 -1780 -637 -231 -155 -383 -277
-575 -463 l-115 -111 -82 -6 c-95 -7 -145 -25 -191 -70 -62 -59 -75 -98 -82
-237 l-5 -125 -81 -120 c-353 -524 -576 -1153 -640 -1800 -19 -192 -21 -557
-5 -745 39 -438 159 -899 339 -1295 375 -826 1035 -1512 1847 -1918 997 -499
2167 -557 3205 -160 1127 431 2005 1358 2371 2503 86 268 139 518 170 810 18
166 20 237 16 475 -3 171 -11 331 -21 410 -80 632 -292 1208 -637 1728 l-79
119 0 114 c0 80 -5 126 -15 151 -43 103 -119 151 -252 160 l-88 5 -90 88
c-665 646 -1503 1039 -2400 1125 -196 18 -625 18 -810 -1z m3408 -1661 c9
-255 9 -2189 0 -2676 l-6 -377 -2986 2 -2986 3 -3 1610 c-1 886 0 1616 3 1623
3 9 610 12 2988 12 l2984 0 6 -197z m252 -3708 l0 -410 -27 -47 c-16 -25 -45
-60 -65 -78 -76 -62 -29 -60 -1225 -60 -1033 0 -1089 -1 -1084 -17 2 -10 35
-204 72 -430 l68 -413 133 0 133 0 0 -65 0 -65 -1250 0 -1250 0 0 65 0 65 135
0 c74 0 135 1 135 3 0 1 16 97 36 212 77 457 104 621 104 633 0 9 -223 12
-1083 12 -1187 0 -1139 -2 -1224 59 -24 18 -51 50 -67 82 l-26 53 0 401 c0
221 3 405 7 408 3 4 1462 6 3242 5 l3236 -3 0 -410z"/>
<path d="M3810 6650 l0 -30 500 0 500 0 0 30 0 30 -500 0 -500 0 0 -30z"/>
<path d="M3195 6460 c4 -6 55 -10 120 -10 65 0 116 4 120 10 4 6 -38 10 -120
10 -82 0 -124 -4 -120 -10z"/>
<path d="M3690 6460 c0 -6 46 -10 119 -10 69 0 122 4 126 10 4 6 -38 10 -119
10 -77 0 -126 -4 -126 -10z"/>
<path d="M4190 6460 c0 -6 46 -10 119 -10 69 0 122 4 126 10 4 6 -38 10 -119
10 -77 0 -126 -4 -126 -10z"/>
<path d="M4690 6460 c0 -6 47 -10 120 -10 73 0 120 4 120 10 0 6 -47 10 -120
10 -73 0 -120 -4 -120 -10z"/>
<path d="M5185 6460 c4 -6 57 -10 126 -10 73 0 119 4 119 10 0 6 -49 10 -126
10 -81 0 -123 -4 -119 -10z"/>
<path d="M4064 5236 c-3 -8 -4 -23 -2 -33 3 -17 21 -18 251 -21 l247 -2 0 35
0 35 -245 0 c-205 0 -247 -2 -251 -14z"/>
<path d="M2320 5090 c0 -7 670 -10 1990 -10 1320 0 1990 3 1990 10 0 7 -670
10 -1990 10 -1320 0 -1990 -3 -1990 -10z"/>
<path d="M2658 4963 c17 -2 47 -2 65 0 17 2 3 4 -33 4 -36 0 -50 -2 -32 -4z"/>
<path d="M2833 4963 c9 -2 25 -2 35 0 9 3 1 5 -18 5 -19 0 -27 -2 -17 -5z"/>
<path d="M3673 4963 c26 -2 68 -2 95 0 26 2 4 3 -48 3 -52 0 -74 -1 -47 -3z"/>
<path d="M4668 4963 c29 -2 74 -2 100 0 26 2 2 3 -53 3 -55 0 -76 -1 -47 -3z"/>
<path d="M4933 4963 c37 -2 96 -2 130 0 34 2 4 3 -68 3 -71 0 -99 -1 -62 -3z"/>
<path d="M5648 4963 c17 -2 47 -2 65 0 17 2 3 4 -33 4 -36 0 -50 -2 -32 -4z"/>
<path d="M2630 4900 c0 -6 98 -10 274 -10 173 0 277 4 281 10 4 7 -90 10 -274
10 -181 0 -281 -4 -281 -10z"/>
<path d="M3630 4900 c0 -5 24 -10 54 -10 30 0 58 5 61 10 4 6 -17 10 -54 10
-34 0 -61 -4 -61 -10z"/>
<path d="M3815 4900 c4 -6 77 -10 185 -10 108 0 181 4 185 10 4 7 -60 10 -185
10 -125 0 -189 -3 -185 -10z"/>
<path d="M4630 4900 c0 -6 108 -10 304 -10 193 0 307 4 311 10 4 7 -100 10
-304 10 -201 0 -311 -4 -311 -10z"/>
<path d="M5625 4900 c4 -6 108 -10 281 -10 176 0 274 4 274 10 0 6 -100 10
-281 10 -184 0 -278 -3 -274 -10z"/>
<path d="M2635 4840 c4 -6 77 -10 186 -10 113 0 179 4 179 10 0 6 -69 10 -186
10 -121 0 -183 -3 -179 -10z"/>
<path d="M3070 4840 c0 -5 24 -10 54 -10 30 0 58 5 61 10 4 6 -17 10 -54 10
-34 0 -61 -4 -61 -10z"/>
<path d="M3630 4840 c0 -6 108 -10 304 -10 193 0 307 4 311 10 4 7 -100 10
-304 10 -201 0 -311 -4 -311 -10z"/>
<path d="M4625 4840 c4 -6 77 -10 185 -10 108 0 181 4 185 10 4 7 -60 10 -185
10 -125 0 -189 -3 -185 -10z"/>
<path d="M5065 4840 c3 -5 44 -10 90 -10 46 0 87 5 90 10 4 6 -28 10 -90 10
-62 0 -94 -4 -90 -10z"/>
<path d="M5625 4840 c3 -5 44 -10 90 -10 46 0 87 5 90 10 4 6 -28 10 -90 10
-62 0 -94 -4 -90 -10z"/>
<path d="M5875 4840 c4 -6 65 -10 150 -10 85 0 146 4 150 10 4 7 -48 10 -150
10 -102 0 -154 -3 -150 -10z"/>
<path d="M2630 4780 c0 -6 110 -10 310 -10 200 0 310 4 310 10 0 6 -110 10
-310 10 -200 0 -310 -4 -310 -10z"/>
<path d="M3630 4780 c0 -6 68 -10 185 -10 117 0 185 4 185 10 0 6 -68 10 -185
10 -117 0 -185 -4 -185 -10z"/>
<path d="M4070 4780 c0 -6 37 -10 90 -10 53 0 90 4 90 10 0 6 -37 10 -90 10
-53 0 -90 -4 -90 -10z"/>
<path d="M4630 4780 c0 -6 108 -10 305 -10 197 0 305 4 305 10 0 6 -108 10
-305 10 -197 0 -305 -4 -305 -10z"/>
<path d="M5625 4780 c4 -6 118 -10 311 -10 196 0 304 4 304 10 0 6 -110 10
-311 10 -204 0 -308 -3 -304 -10z"/>
<path d="M2635 4720 c-4 -6 28 -10 90 -10 62 0 94 4 90 10 -3 6 -44 10 -90 10
-46 0 -87 -4 -90 -10z"/>
<path d="M2885 4720 c-4 -7 58 -10 180 -10 122 0 184 3 180 10 -4 6 -75 10
-180 10 -105 0 -176 -4 -180 -10z"/>
<path d="M3635 4720 c-4 -7 90 -10 275 -10 185 0 279 3 275 10 -4 6 -107 10
-275 10 -168 0 -271 -4 -275 -10z"/>
<path d="M4630 4720 c-10 -7 5 -10 53 -10 43 0 66 4 62 10 -8 13 -95 13 -115
0z"/>
<path d="M4815 4720 c-4 -7 58 -10 179 -10 117 0 186 4 186 10 0 6 -66 10
-179 10 -109 0 -182 -4 -186 -10z"/>
<path d="M5625 4720 c-4 -7 90 -10 275 -10 185 0 279 3 275 10 -4 6 -107 10
-275 10 -168 0 -271 -4 -275 -10z"/>
<path d="M2630 4545 l0 -45 125 0 125 0 0 45 0 45 -125 0 -125 0 0 -45z"/>
<path d="M3630 4545 l0 -46 123 3 122 3 3 43 3 42 -125 0 -126 0 0 -45z"/>
<path d="M4620 4545 l0 -45 125 0 125 0 0 45 0 45 -125 0 -125 0 0 -45z"/>
<path d="M5620 4545 l0 -45 125 0 125 0 0 45 0 45 -125 0 -125 0 0 -45z"/>
<path d="M2320 4090 c0 -6 36 -10 89 -10 50 0 93 5 96 10 4 6 -28 10 -89 10
-57 0 -96 -4 -96 -10z"/>
<path d="M3315 4090 c3 -5 33 -10 66 -10 33 0 59 4 59 10 0 6 -29 10 -66 10
-41 0 -63 -4 -59 -10z"/>
<path d="M4065 4090 c3 -5 46 -10 96 -10 53 0 89 4 89 10 0 6 -39 10 -96 10
-61 0 -93 -4 -89 -10z"/>
<path d="M4815 4090 c3 -5 30 -10 60 -10 30 0 57 5 60 10 4 6 -18 10 -60 10
-42 0 -64 -4 -60 -10z"/>
<path d="M5560 4090 c0 -6 36 -10 89 -10 50 0 93 5 96 10 4 6 -28 10 -89 10
-57 0 -96 -4 -96 -10z"/>
<path d="M2320 4030 c0 -6 38 -10 95 -10 57 0 95 4 95 10 0 6 -38 10 -95 10
-57 0 -95 -4 -95 -10z"/>
<path d="M3320 4030 c0 -6 37 -10 90 -10 53 0 90 4 90 10 0 6 -37 10 -90 10
-53 0 -90 -4 -90 -10z"/>
<path d="M4060 4030 c0 -6 28 -10 65 -10 37 0 65 4 65 10 0 6 -28 10 -65 10
-37 0 -65 -4 -65 -10z"/>
<path d="M4810 4030 c0 -6 38 -10 95 -10 57 0 95 4 95 10 0 6 -38 10 -95 10
-57 0 -95 -4 -95 -10z"/>
<path d="M5560 4030 c0 -6 27 -10 60 -10 33 0 60 4 60 10 0 6 -27 10 -60 10
-33 0 -60 -4 -60 -10z"/>
<path d="M2320 3970 c0 -6 27 -10 60 -10 33 0 60 4 60 10 0 6 -27 10 -60 10
-33 0 -60 -4 -60 -10z"/>
<path d="M3320 3970 c0 -6 27 -10 60 -10 33 0 60 4 60 10 0 6 -27 10 -60 10
-33 0 -60 -4 -60 -10z"/>
<path d="M4060 3970 c0 -6 28 -10 65 -10 37 0 65 4 65 10 0 6 -28 10 -65 10
-37 0 -65 -4 -65 -10z"/>
<path d="M4810 3970 c0 -6 38 -10 95 -10 57 0 95 4 95 10 0 6 -38 10 -95 10
-57 0 -95 -4 -95 -10z"/>
<path d="M5560 3970 c0 -6 38 -10 95 -10 57 0 95 4 95 10 0 6 -38 10 -95 10
-57 0 -95 -4 -95 -10z"/>
<path d="M4248 3204 c-36 -19 -58 -63 -58 -114 0 -56 48 -109 106 -117 100
-13 174 89 129 177 -34 65 -112 90 -177 54z"/>
</g>
</svg>
