<?xml version="1.0" standalone="no"?>
<!DOCTYPE svg PUBLIC "-//W3C//DTD SVG 20010904//EN"
 "http://www.w3.org/TR/2001/REC-SVG-20010904/DTD/svg10.dtd">
<svg version="1.0" xmlns="http://www.w3.org/2000/svg"
 width="721.000000pt" height="546.000000pt" viewBox="0 0 721.000000 546.000000"
 preserveAspectRatio="xMidYMid meet">

<g transform="translate(0.000000,546.000000) scale(0.100000,-0.100000)"
fill="#000000" stroke="none">
<path d="M0 2735 l0 -2715 3608 2 3607 3 -3602 2 -3603 3 0 2705 0 2705 3603
3 3602 2 -3607 3 -3608 2 0 -2715z"/>
<path d="M210 5339 c-14 -11 -18 -18 -10 -14 8 4 5 -2 -8 -12 -26 -21 -38 -76
-25 -112 l9 -23 16 23 c16 25 58 133 58 149 0 15 -13 12 -40 -11z m-33 -101
c-3 -7 -5 -2 -5 12 0 14 2 19 5 13 2 -7 2 -19 0 -25z"/>
<path d="M6260 5260 l0 -60 60 0 60 0 0 60 0 60 -60 0 -60 0 0 -60z m110 0 l0
-50 -50 0 -50 0 0 50 0 50 50 0 50 0 0 -50z"/>
<path d="M6874 5293 l30 -33 -30 -32 -29 -33 33 29 32 30 33 -30 32 -29 -29
33 -30 32 30 33 29 32 -32 -29 -33 -30 -32 30 -33 29 29 -32z"/>
<path d="M412 5255 c0 -33 2 -52 5 -42 5 21 22 22 29 2 4 -8 11 -15 17 -15 5
0 2 9 -8 20 -17 19 -17 21 0 40 10 11 13 20 8 20 -6 0 -17 -7 -24 -17 -13 -15
-15 -13 -20 18 -5 26 -6 20 -7 -26z"/>
<path d="M362 5283 c-8 -8 -9 -13 -2 -13 5 0 10 -16 10 -35 0 -27 4 -35 18
-34 10 0 12 3 5 6 -15 5 -18 60 -4 65 5 2 4 8 -3 14 -8 8 -15 7 -24 -3z"/>
<path d="M5708 5263 c17 -2 47 -2 65 0 17 2 3 4 -33 4 -36 0 -50 -2 -32 -4z"/>
<path d="M487 4955 c-80 -22 -155 -64 -217 -122 -106 -98 -150 -207 -150 -375
0 -162 41 -271 139 -368 94 -93 227 -140 394 -140 159 1 262 38 362 131 46 44
67 73 88 123 15 37 27 78 27 91 0 24 -3 25 -57 26 -32 1 -97 3 -144 5 l-87 3
-12 -45 c-16 -55 -53 -88 -119 -104 -99 -24 -195 22 -243 114 -27 51 -37 202
-18 283 27 122 151 189 282 153 42 -12 93 -65 102 -108 7 -28 7 -28 79 -27
236 5 217 2 217 30 0 29 -29 105 -40 105 -4 0 -10 9 -13 21 -3 11 -15 23 -26
26 -12 3 -21 13 -21 23 0 10 -20 36 -44 57 -90 79 -197 113 -351 112 -55 0
-122 -7 -148 -14z"/>
<path d="M4237 4955 c-80 -22 -155 -64 -217 -122 -106 -98 -150 -207 -150
-375 0 -162 41 -271 139 -368 94 -93 227 -140 394 -140 159 1 262 38 362 131
46 44 67 73 88 123 15 37 27 78 27 91 0 24 -3 25 -57 26 -32 1 -97 3 -144 5
l-87 3 -12 -45 c-16 -55 -53 -88 -119 -104 -99 -24 -195 22 -243 114 -27 51
-37 202 -18 283 27 122 151 189 282 153 42 -12 93 -65 102 -108 7 -28 7 -28
79 -27 236 5 217 2 217 30 0 29 -29 105 -40 105 -4 0 -10 9 -13 21 -3 11 -15
23 -26 26 -12 3 -21 13 -21 23 0 10 -20 36 -44 57 -90 79 -197 113 -351 112
-55 0 -122 -7 -148 -14z"/>
<path d="M6703 4883 c-7 -2 -13 -9 -13 -14 0 -6 4 -8 9 -4 6 3 12 -16 14 -42
3 -48 3 -48 5 10 1 31 1 57 0 56 -2 0 -9 -3 -15 -6z"/>
<path d="M6770 4871 c-21 -40 -6 -91 27 -91 7 0 17 9 23 21 14 26 -5 53 -32
45 -27 -6 -17 16 13 31 24 12 24 13 2 13 -12 0 -27 -9 -33 -19z m40 -56 c0
-25 -23 -35 -35 -15 -10 16 2 40 20 40 9 0 15 -9 15 -25z"/>
<path d="M1826 4653 c3 -16 13 -48 20 -72 8 -24 13 -44 12 -45 -2 -1 -21 -11
-43 -21 -22 -11 -53 -28 -68 -39 -28 -18 -29 -18 -57 3 -16 11 -32 21 -35 21
-3 0 -33 20 -67 45 -34 25 -66 45 -70 45 -4 0 -8 -72 -8 -160 0 -179 -2 -175
70 -120 19 15 59 42 87 59 l53 33 29 -21 c16 -12 33 -21 38 -21 5 0 25 -8 44
-18 32 -16 35 -20 26 -46 -5 -15 -7 -29 -5 -32 3 -2 31 5 64 17 32 11 87 29
121 38 61 18 213 98 213 112 0 16 -175 109 -205 109 -16 0 -91 48 -165 105
-55 42 -62 43 -54 8z"/>
<path d="M3076 4653 c3 -16 13 -48 20 -72 8 -24 13 -44 12 -45 -2 -1 -21 -11
-43 -21 -22 -11 -53 -28 -68 -39 -28 -18 -29 -18 -57 3 -16 11 -32 21 -35 21
-3 0 -33 20 -67 45 -34 25 -66 45 -70 45 -4 0 -8 -72 -8 -160 0 -179 -2 -175
70 -120 19 15 59 42 87 59 l53 33 29 -21 c16 -12 33 -21 38 -21 5 0 25 -8 44
-18 32 -16 35 -20 26 -46 -5 -15 -7 -29 -5 -32 3 -2 31 5 64 17 32 11 87 29
121 38 61 18 213 98 213 112 0 16 -175 109 -205 109 -16 0 -91 48 -165 105
-55 42 -62 43 -54 8z"/>
<path d="M5576 4653 c3 -16 13 -48 20 -72 8 -24 13 -44 12 -45 -2 -1 -21 -11
-43 -21 -22 -11 -53 -28 -68 -39 -28 -18 -29 -18 -57 3 -16 11 -32 21 -35 21
-3 0 -33 20 -67 45 -34 25 -66 45 -70 45 -4 0 -8 -72 -8 -160 0 -179 -2 -175
70 -120 19 15 59 42 87 59 l53 33 29 -21 c16 -12 33 -21 38 -21 5 0 25 -8 44
-18 32 -16 35 -20 26 -46 -5 -15 -7 -29 -5 -32 3 -2 31 5 64 17 32 11 87 29
121 38 61 18 213 98 213 112 0 16 -175 109 -205 109 -16 0 -91 48 -165 105
-55 42 -62 43 -54 8z"/>
<path d="M7100 4340 l0 -170 -352 -3 -353 -2 358 -3 357 -2 0 175 c0 96 -2
175 -5 175 -3 0 -5 -76 -5 -170z"/>
<path d="M6470 4335 c0 -30 5 -55 10 -55 6 0 10 19 10 43 l1 42 25 -42 c14
-24 30 -43 35 -43 5 0 8 26 7 58 l-2 57 -3 -50 -4 -49 -30 47 c-16 26 -34 47
-39 47 -6 0 -10 -25 -10 -55z"/>
<path d="M6592 4348 c-22 -22 -15 -57 14 -64 32 -8 46 6 42 42 -3 32 -34 44
-56 22z m43 -28 c0 -29 -32 -41 -41 -16 -9 24 4 48 23 44 12 -2 18 -12 18 -28z"/>
<path d="M6673 4325 c2 -36 5 -40 30 -41 25 -1 27 1 26 40 l-2 41 -6 -35 c-4
-22 -12 -35 -21 -35 -9 0 -18 13 -22 35 l-6 35 1 -40z"/>
<path d="M6753 4325 c7 -19 17 -34 22 -34 6 0 15 15 22 34 15 44 8 46 -10 3
l-14 -33 -7 33 c-4 17 -11 32 -16 32 -5 0 -4 -16 3 -35z"/>
<path d="M6831 4346 c-21 -26 -10 -61 22 -64 15 -2 27 1 27 6 0 5 -10 8 -21 8
-12 -1 -24 5 -26 12 -3 7 5 12 22 12 20 0 26 4 23 17 -4 23 -31 28 -47 9z m39
-6 c0 -5 -9 -10 -21 -10 -11 0 -17 5 -14 10 3 6 13 10 21 10 8 0 14 -4 14 -10z"/>
<path d="M6930 4349 l25 -11 -28 -10 c-37 -13 -33 -43 6 -44 26 -1 28 1 25 35
-3 30 -7 36 -28 38 l-25 3 25 -11z m20 -39 c0 -12 -28 -25 -36 -17 -9 9 6 27
22 27 8 0 14 -5 14 -10z"/>
<path d="M6983 4325 c2 -36 5 -40 30 -41 25 -1 27 1 26 40 l-2 41 -6 -35 c-4
-22 -12 -35 -21 -35 -9 0 -18 13 -22 35 l-6 35 1 -40z"/>
<path d="M4512 3710 c14 -4 32 -11 40 -15 7 -3 4 1 -6 9 -11 9 -29 16 -40 15
-17 -1 -16 -2 6 -9z"/>
<path d="M4296 3689 c-14 -11 -26 -25 -26 -32 0 -6 9 -1 20 11 11 12 31 24 43
26 12 3 31 7 42 9 11 3 4 5 -16 6 -23 1 -46 -7 -63 -20z"/>
<path d="M4413 3683 c18 -21 18 -21 -5 -25 -14 -2 -24 -11 -26 -24 -3 -24 24
-40 43 -24 6 5 15 7 18 3 4 -3 7 5 7 19 0 14 -11 35 -27 49 -23 20 -25 20 -10
2z"/>
<path d="M4485 3660 c21 -22 40 -40 41 -40 5 0 -3 47 -10 58 -4 7 -16 10 -27
7 -11 -4 -19 -2 -19 4 0 6 -5 11 -12 11 -7 0 6 -18 27 -40z"/>
<path d="M5838 3652 l-38 -3 15 -28 c8 -16 11 -31 8 -35 -4 -4 10 -20 30 -37
20 -17 37 -34 37 -39 0 -4 -18 -11 -40 -15 -52 -9 -64 -22 -89 -97 -16 -50
-19 -71 -11 -103 17 -72 17 -72 -52 -74 -70 -1 -81 -7 -165 -85 -39 -36 -66
-71 -77 -100 -15 -40 -22 -46 -54 -51 -39 -7 -71 -12 -110 -20 -17 -3 -28 4
-46 33 -13 20 -26 47 -30 60 -4 12 -13 22 -20 22 -17 0 -26 -53 -26 -153 0
-122 44 -186 139 -202 39 -6 722 38 738 48 6 4 13 48 16 99 4 51 16 210 27
353 12 143 18 276 15 295 -20 108 -101 148 -267 132z"/>
<path d="M4262 3620 c0 -14 2 -19 5 -12 2 6 2 18 0 25 -3 6 -5 1 -5 -13z"/>
<path d="M4099 3609 c-23 -19 -23 -20 -2 -10 12 6 25 16 28 21 10 16 -1 12
-26 -11z"/>
<path d="M5588 3606 c-172 -71 -361 -279 -373 -413 -5 -47 -4 -49 44 -90 48
-40 51 -41 93 -32 125 28 316 198 390 347 43 87 45 154 5 188 -36 31 -84 31
-159 0z"/>
<path d="M4549 3605 c5 -11 17 -29 26 -40 l16 -20 -10 20 c-5 11 -17 29 -26
40 l-16 20 10 -20z"/>
<path d="M4148 3603 c7 -3 16 -2 19 1 4 3 -2 6 -13 5 -11 0 -14 -3 -6 -6z"/>
<path d="M4084 3568 l-19 -23 23 19 c21 18 27 26 19 26 -2 0 -12 -10 -23 -22z"/>
<path d="M4204 3560 c-31 -12 -39 -30 -20 -48 14 -14 17 -14 36 3 34 31 24 60
-16 45z"/>
<path d="M4022 3523 c-5 -10 -6 -27 -2 -38 6 -16 8 -12 12 18 5 41 3 45 -10
20z"/>
<path d="M4062 3515 c0 -16 2 -22 5 -12 2 9 2 23 0 30 -3 6 -5 -1 -5 -18z"/>
<path d="M4320 3530 c8 -5 24 -10 34 -10 26 0 18 6 -19 14 -22 5 -26 4 -15 -4z"/>
<path d="M4596 3520 c3 -14 11 -32 16 -40 6 -10 7 -7 2 10 -3 14 -11 32 -16
40 -6 10 -7 7 -2 -10z"/>
<path d="M4238 3498 c-3 -17 -1 -25 5 -21 6 4 8 0 4 -11 -4 -9 -3 -15 1 -13 4
2 24 12 45 22 20 9 37 21 37 25 0 15 -39 21 -59 11 -14 -8 -20 -8 -24 2 -2 6
-6 0 -9 -15z"/>
<path d="M3962 3478 c-25 -25 -7 -98 23 -98 11 0 10 5 -5 20 -23 23 -24 29
-10 64 11 29 9 31 -8 14z"/>
<path d="M350 3470 c-100 -19 -183 -77 -237 -168 -25 -43 -28 -56 -28 -142 0
-87 3 -100 30 -149 61 -111 158 -161 325 -169 119 -5 185 8 195 38 11 36 22
120 15 120 -4 0 -12 -18 -19 -40 -15 -49 -46 -71 -117 -81 -119 -16 -242 57
-296 176 -29 65 -31 188 -5 257 44 115 167 164 306 122 62 -18 98 -52 107
-100 10 -56 24 -28 24 50 l0 74 -31 6 c-57 11 -223 15 -269 6z"/>
<path d="M1600 3470 c-100 -19 -183 -77 -237 -168 -25 -43 -28 -56 -28 -142 0
-87 3 -100 30 -149 61 -111 158 -161 325 -169 119 -5 185 8 195 38 11 36 22
120 15 120 -4 0 -12 -18 -19 -40 -15 -49 -46 -71 -117 -81 -119 -16 -242 57
-296 176 -29 65 -31 188 -5 257 44 115 167 164 306 122 62 -18 98 -52 107
-100 10 -56 24 -28 24 50 l0 74 -31 6 c-57 11 -223 15 -269 6z"/>
<path d="M4367 3465 c-4 -8 -14 -15 -24 -15 -10 0 -25 -5 -33 -10 -11 -7 -7
-9 15 -7 27 2 64 32 52 43 -2 3 -7 -2 -10 -11z"/>
<path d="M4070 3466 c0 -2 8 -10 18 -17 15 -13 16 -12 3 4 -13 16 -21 21 -21
13z"/>
<path d="M3997 3446 c-3 -8 1 -20 9 -26 12 -10 14 -8 14 14 0 28 -14 35 -23
12z"/>
<path d="M4204 3444 c-18 -14 -18 -15 4 -4 12 6 22 13 22 15 0 8 -5 6 -26 -11z"/>
<path d="M4118 3428 c6 -6 18 -8 28 -6 14 3 12 5 -9 10 -19 3 -25 2 -19 -4z"/>
<path d="M4652 3396 c12 -25 24 -44 26 -42 5 6 -28 75 -39 82 -5 3 1 -15 13
-40z"/>
<path d="M3076 3403 c3 -16 13 -48 20 -72 8 -24 13 -44 12 -45 -2 -1 -21 -11
-43 -21 -22 -11 -53 -28 -68 -39 -28 -18 -29 -18 -57 3 -16 11 -32 21 -35 21
-3 0 -33 20 -67 45 -34 25 -66 45 -70 45 -4 0 -8 -72 -8 -160 0 -179 -2 -175
70 -120 19 15 59 42 87 59 l53 33 29 -21 c16 -12 33 -21 38 -21 5 0 25 -8 44
-18 32 -16 35 -20 26 -46 -5 -15 -7 -29 -5 -32 3 -2 31 5 64 17 32 11 87 29
121 38 61 18 213 98 213 112 0 16 -175 109 -205 109 -16 0 -91 48 -165 105
-55 42 -62 43 -54 8z"/>
<path d="M4015 3381 c-3 -5 -1 -12 5 -16 5 -3 10 1 10 9 0 18 -6 21 -15 7z"/>
<path d="M4330 3380 c0 -5 5 -10 10 -10 6 0 10 5 10 10 0 6 -4 10 -10 10 -5 0
-10 -4 -10 -10z"/>
<path d="M4735 3339 c-4 -6 -5 -12 -2 -15 2 -3 7 2 10 11 7 17 1 20 -8 4z"/>
<path d="M4687 3272 c12 -83 9 -270 -5 -319 -23 -77 -85 -130 -216 -180 -33
-13 -47 -21 -31 -18 45 8 166 71 202 104 54 50 67 104 69 293 1 137 -1 168
-13 172 -12 5 -13 -3 -6 -52z"/>
<path d="M814 3262 c-7 -4 -11 -27 -10 -52 l2 -45 -49 4 c-38 2 -48 0 -45 -10
3 -8 22 -15 46 -17 l42 -3 0 -45 c0 -32 4 -44 15 -44 10 0 15 11 16 35 1 19 2
40 3 47 0 7 19 12 45 12 27 1 46 6 49 14 2 7 -2 13 -9 11 -8 -1 -31 -1 -51 0
l-37 1 -3 50 c-2 34 -7 47 -14 42z"/>
<path d="M1084 3262 c-6 -4 -9 -27 -8 -52 l2 -45 -50 4 c-66 4 -62 -22 4 -29
l45 -5 -2 -42 c-1 -36 2 -43 17 -43 15 0 18 8 18 45 l0 45 45 0 c34 0 45 4 45
15 0 9 -6 15 -12 14 -7 -1 -28 -1 -45 0 -33 1 -33 1 -33 51 0 49 -5 57 -26 42z"/>
<path d="M2064 3262 c-7 -4 -11 -27 -10 -52 l2 -45 -49 4 c-38 2 -48 0 -45
-10 3 -8 22 -15 46 -17 l42 -3 0 -45 c0 -32 4 -44 15 -44 10 0 15 11 16 35 1
19 2 40 3 47 0 7 19 12 45 12 27 1 46 6 49 14 2 7 -2 13 -9 11 -8 -1 -31 -1
-51 0 l-37 1 -3 50 c-2 34 -7 47 -14 42z"/>
<path d="M2334 3262 c-6 -4 -9 -27 -8 -52 l2 -45 -50 4 c-66 4 -62 -22 4 -29
l45 -5 -2 -42 c-1 -36 2 -43 17 -43 15 0 18 8 18 45 l0 45 45 0 c34 0 45 4 45
15 0 9 -6 15 -12 14 -7 -1 -28 -1 -45 0 -33 1 -33 1 -33 51 0 49 -5 57 -26 42z"/>
<path d="M4070 3251 c0 -6 4 -13 10 -16 6 -3 7 1 4 9 -7 18 -14 21 -14 7z"/>
<path d="M4116 3178 c16 -26 30 -45 32 -43 6 6 -26 60 -43 75 -10 8 -5 -6 11
-32z"/>
<path d="M4460 3200 c-8 -5 -10 -10 -5 -10 6 0 17 5 25 10 8 5 11 10 5 10 -5
0 -17 -5 -25 -10z"/>
<path d="M4157 3070 c3 -25 9 -54 14 -65 14 -36 9 25 -6 70 l-14 40 6 -45z"/>
<path d="M4172 2940 c0 -19 2 -27 5 -17 2 9 2 25 0 35 -3 9 -5 1 -5 -18z"/>
<path d="M4720 2884 c0 -8 5 -12 10 -9 6 3 10 10 10 16 0 5 -4 9 -10 9 -5 0
-10 -7 -10 -16z"/>
<path d="M4177 2844 c-3 -4 1 -13 9 -21 19 -20 26 -13 10 9 -7 10 -16 15 -19
12z"/>
<path d="M4246 2761 c10 -10 23 -16 27 -14 5 3 0 11 -10 19 -27 20 -39 17 -17
-5z"/>
<path d="M4317 2739 c-4 -16 -3 -18 9 -8 7 6 11 15 8 20 -8 13 -11 11 -17 -12z"/>
<path d="M4363 2743 c9 -2 23 -2 30 0 6 3 -1 5 -18 5 -16 0 -22 -2 -12 -5z"/>
<path d="M4243 2700 c2 -9 15 -15 32 -15 17 0 30 6 32 15 4 12 3 12 -5 2 -10
-15 -42 -13 -55 3 -5 6 -7 4 -4 -5z"/>
<path d="M1700 2221 c-20 -10 -67 -21 -110 -24 -87 -6 -107 -13 -120 -38 -23
-42 -50 -215 -50 -316 0 -97 2 -106 24 -128 41 -41 56 -25 56 60 0 84 10 119
40 135 49 26 80 -16 80 -109 0 -56 2 -60 45 -100 49 -45 92 -54 133 -25 18 13
22 25 22 73 l0 57 63 -4 c83 -5 87 -7 87 -41 0 -25 7 -34 40 -51 43 -22 91
-26 121 -10 17 9 19 22 19 106 0 70 4 103 17 127 18 34 24 136 10 175 -8 21
-6 22 35 22 24 0 57 -4 73 -8 42 -12 55 -5 55 30 0 28 -2 30 -27 23 -16 -4
-57 -9 -92 -12 -57 -4 -71 -1 -135 29 -65 30 -79 33 -174 34 -56 1 -105 4
-109 8 -12 12 -68 5 -103 -13z m105 -37 c11 -23 15 -50 12 -73 -3 -23 0 -41 9
-49 19 -18 22 -15 26 21 2 27 8 33 31 35 21 3 27 -1 27 -16 0 -25 49 -36 141
-33 73 3 99 -11 99 -53 0 -35 -46 -76 -86 -76 -24 0 -34 -5 -39 -20 -9 -27
-55 -28 -55 -1 0 13 -8 21 -22 23 -20 3 -23 8 -21 46 2 51 -22 59 -32 10 -4
-18 -12 -39 -17 -45 -12 -16 -48 -17 -48 -3 0 15 -62 -19 -80 -44 -8 -12 -14
-24 -12 -28 1 -5 -3 -8 -8 -8 -5 0 -10 6 -10 13 -1 6 -7 -3 -15 -20 -18 -41
-29 -42 -23 -4 2 17 1 28 -3 25 -15 -9 -55 7 -67 27 -10 15 -10 24 2 42 7 12
17 40 21 61 6 34 4 38 -8 28 -7 -7 -17 -9 -21 -5 -3 4 -3 -8 0 -26 7 -35 -16
-71 -46 -71 -55 0 -98 -94 -84 -182 6 -35 5 -40 -12 -36 -26 5 -37 71 -30 183
6 94 37 240 54 257 13 13 118 26 135 16 10 -5 31 1 59 17 23 14 57 25 74 25
27 0 35 -6 49 -36z m110 17 c-25 -4 -40 -12 -41 -21 -1 -8 -2 -20 -3 -26 -2
-18 -31 -12 -31 7 0 10 -5 21 -11 25 -21 12 14 24 71 22 52 -1 53 -1 15 -7z
m-255 -373 c0 -26 -17 -22 -24 5 -11 40 -7 53 9 31 8 -10 15 -27 15 -36z m40
-49 c0 -5 -4 -9 -10 -9 -5 0 -10 7 -10 16 0 8 5 12 10 9 6 -3 10 -10 10 -16z
m-50 -16 c0 -20 -3 -24 -11 -16 -7 7 -9 19 -6 27 10 24 17 19 17 -11z m337 -5
c-3 -8 -6 -5 -6 6 -1 11 2 17 5 13 3 -3 4 -12 1 -19z m50 -30 c-3 -7 -5 -2 -5
12 0 14 2 19 5 13 2 -7 2 -19 0 -25z m-350 -15 c-3 -10 -5 -4 -5 12 0 17 2 24
5 18 2 -7 2 -21 0 -30z m50 -20 c-3 -10 -5 -4 -5 12 0 17 2 24 5 18 2 -7 2
-21 0 -30z"/>
<path d="M1525 2140 c-4 -6 6 -10 22 -10 22 0 25 2 13 10 -19 12 -27 12 -35 0z"/>
<path d="M1530 2094 c-11 -12 -11 -18 1 -30 13 -12 18 -12 34 0 16 12 17 16 6
30 -17 20 -25 20 -41 0z"/>
<path d="M1865 2088 c-29 -131 -30 -138 -11 -138 14 0 18 7 30 63 5 22 12 28
29 25 19 -3 22 -9 20 -46 -2 -36 1 -43 15 -40 18 3 38 68 28 93 -3 9 -18 15
-36 15 -23 0 -33 6 -40 25 -12 31 -28 32 -35 3z"/>
<path d="M1705 2048 c-8 -24 -25 -103 -25 -120 0 -25 26 -23 33 2 4 15 14 20
39 20 59 0 100 51 76 94 -11 20 -116 23 -123 4z m83 -21 c15 -18 -12 -57 -39
-57 -14 0 -19 7 -19 28 0 16 3 32 7 35 11 11 40 8 51 -6z"/>
<path d="M2005 2048 c-8 -24 -25 -103 -25 -120 0 -25 27 -23 35 2 5 15 15 20
41 20 24 0 43 8 59 25 28 27 30 37 15 66 -9 15 -22 19 -66 19 -35 0 -56 -5
-59 -12z m89 -23 c6 -18 -27 -55 -49 -55 -15 0 -22 50 -8 63 12 13 51 7 57 -8z"/>
<path d="M2047 2023 c-10 -10 -8 -43 2 -43 15 0 42 31 36 41 -7 11 -29 12 -38
2z"/>
<path d="M576 2153 c3 -16 13 -48 20 -72 8 -24 13 -44 12 -45 -2 -1 -21 -11
-43 -21 -22 -11 -53 -28 -68 -39 -28 -18 -29 -18 -57 3 -16 11 -32 21 -35 21
-3 0 -33 20 -67 45 -34 25 -66 45 -70 45 -4 0 -8 -72 -8 -160 0 -179 -2 -175
70 -120 19 15 59 42 87 59 l53 33 29 -21 c16 -12 33 -21 38 -21 5 0 25 -8 44
-18 32 -16 35 -20 26 -46 -5 -15 -7 -29 -5 -32 3 -2 31 5 64 17 32 11 87 29
121 38 61 18 213 98 213 112 0 16 -175 109 -205 109 -16 0 -91 48 -165 105
-55 42 -62 43 -54 8z"/>
<path d="M3076 2153 c3 -16 13 -48 20 -72 8 -24 13 -44 12 -45 -2 -1 -21 -11
-43 -21 -22 -11 -53 -28 -68 -39 -28 -18 -29 -18 -57 3 -16 11 -32 21 -35 21
-3 0 -33 20 -67 45 -34 25 -66 45 -70 45 -4 0 -8 -72 -8 -160 0 -179 -2 -175
70 -120 19 15 59 42 87 59 l53 33 29 -21 c16 -12 33 -21 38 -21 5 0 25 -8 44
-18 32 -16 35 -20 26 -46 -5 -15 -7 -29 -5 -32 3 -2 31 5 64 17 32 11 87 29
121 38 61 18 213 98 213 112 0 16 -175 109 -205 109 -16 0 -91 48 -165 105
-55 42 -62 43 -54 8z"/>
<path d="M4326 2153 c3 -16 13 -48 20 -72 8 -24 13 -44 12 -45 -2 -1 -21 -11
-43 -21 -22 -11 -53 -28 -68 -39 -28 -18 -29 -18 -57 3 -16 11 -32 21 -35 21
-3 0 -33 20 -67 45 -34 25 -66 45 -70 45 -4 0 -8 -72 -8 -160 0 -179 -2 -175
70 -120 19 15 59 42 87 59 l53 33 29 -21 c16 -12 33 -21 38 -21 5 0 25 -8 44
-18 32 -16 35 -20 26 -46 -5 -15 -7 -29 -5 -32 3 -2 31 5 64 17 32 11 87 29
121 38 61 18 213 98 213 112 0 16 -175 109 -205 109 -16 0 -91 48 -165 105
-55 42 -62 43 -54 8z"/>
<path d="M5576 2153 c3 -16 13 -48 20 -72 8 -24 13 -44 12 -45 -2 -1 -21 -11
-43 -21 -22 -11 -53 -28 -68 -39 -28 -18 -29 -18 -57 3 -16 11 -32 21 -35 21
-3 0 -33 20 -67 45 -34 25 -66 45 -70 45 -4 0 -8 -72 -8 -160 0 -179 -2 -175
70 -120 19 15 59 42 87 59 l53 33 29 -21 c16 -12 33 -21 38 -21 5 0 25 -8 44
-18 32 -16 35 -20 26 -46 -5 -15 -7 -29 -5 -32 3 -2 31 5 64 17 32 11 87 29
121 38 61 18 213 98 213 112 0 16 -175 109 -205 109 -16 0 -91 48 -165 105
-55 42 -62 43 -54 8z"/>
<path d="M762 1210 c14 -4 32 -11 40 -15 7 -3 4 1 -6 9 -11 9 -29 16 -40 15
-17 -1 -16 -2 6 -9z"/>
<path d="M546 1189 c-14 -11 -26 -25 -26 -32 0 -6 9 -1 20 11 11 12 31 24 43
26 12 3 31 7 42 9 11 3 4 5 -16 6 -23 1 -46 -7 -63 -20z"/>
<path d="M663 1183 c18 -21 18 -21 -5 -25 -14 -2 -24 -11 -26 -24 -3 -24 24
-40 43 -24 6 5 15 7 18 3 4 -3 7 5 7 19 0 14 -11 35 -27 49 -23 20 -25 20 -10
2z"/>
<path d="M735 1160 c21 -22 40 -40 41 -40 5 0 -3 47 -10 58 -4 7 -16 10 -27 7
-11 -4 -19 -2 -19 4 0 6 -5 11 -12 11 -7 0 6 -18 27 -40z"/>
<path d="M3338 1152 l-38 -3 15 -28 c8 -16 11 -31 8 -35 -4 -4 10 -20 30 -37
20 -17 37 -34 37 -39 0 -4 -18 -11 -40 -15 -52 -9 -64 -22 -89 -97 -16 -50
-19 -71 -11 -103 17 -72 17 -72 -52 -74 -70 -1 -81 -7 -165 -85 -39 -36 -66
-71 -77 -100 -15 -40 -22 -46 -54 -51 -39 -7 -71 -12 -110 -20 -17 -3 -28 4
-46 33 -13 20 -26 47 -30 60 -4 12 -13 22 -20 22 -17 0 -26 -53 -26 -153 0
-122 44 -186 139 -202 39 -6 722 38 738 48 6 4 13 48 16 99 4 51 16 210 27
353 12 143 18 276 15 295 -20 108 -101 148 -267 132z"/>
<path d="M512 1120 c0 -14 2 -19 5 -12 2 6 2 18 0 25 -3 6 -5 1 -5 -13z"/>
<path d="M349 1109 c-23 -19 -23 -20 -2 -10 12 6 25 16 28 21 10 16 -1 12 -26
-11z"/>
<path d="M3088 1106 c-172 -71 -361 -279 -373 -413 -5 -47 -4 -49 44 -90 48
-40 51 -41 93 -32 125 28 316 198 390 347 43 87 45 154 5 188 -36 31 -84 31
-159 0z"/>
<path d="M799 1105 c5 -11 17 -29 26 -40 l16 -20 -10 20 c-5 11 -17 29 -26 40
l-16 20 10 -20z"/>
<path d="M398 1103 c7 -3 16 -2 19 1 4 3 -2 6 -13 5 -11 0 -14 -3 -6 -6z"/>
<path d="M334 1068 l-19 -23 23 19 c21 18 27 26 19 26 -2 0 -12 -10 -23 -22z"/>
<path d="M454 1060 c-31 -12 -39 -30 -20 -48 14 -14 17 -14 36 3 34 31 24 60
-16 45z"/>
<path d="M272 1023 c-5 -10 -6 -27 -2 -38 6 -16 8 -12 12 18 5 41 3 45 -10 20z"/>
<path d="M312 1015 c0 -16 2 -22 5 -12 2 9 2 23 0 30 -3 6 -5 -1 -5 -18z"/>
<path d="M570 1030 c8 -5 24 -10 34 -10 26 0 18 6 -19 14 -22 5 -26 4 -15 -4z"/>
<path d="M846 1020 c3 -14 11 -32 16 -40 6 -10 7 -7 2 10 -3 14 -11 32 -16 40
-6 10 -7 7 -2 -10z"/>
<path d="M488 998 c-3 -17 -1 -25 5 -21 6 4 8 0 4 -11 -4 -9 -3 -15 1 -13 4 2
24 12 45 22 20 9 37 21 37 25 0 15 -39 21 -59 11 -14 -8 -20 -8 -24 2 -2 6 -6
0 -9 -15z"/>
<path d="M212 978 c-25 -25 -7 -98 23 -98 11 0 10 5 -5 20 -23 23 -24 29 -10
64 11 29 9 31 -8 14z"/>
<path d="M5450 971 c-20 -10 -67 -21 -110 -24 -87 -6 -107 -13 -120 -38 -23
-42 -50 -215 -50 -316 0 -97 2 -106 24 -128 41 -41 56 -25 56 60 0 84 10 119
40 135 49 26 80 -16 80 -109 0 -56 2 -60 45 -100 49 -45 92 -54 133 -25 18 13
22 25 22 73 l0 57 63 -4 c83 -5 87 -7 87 -41 0 -25 7 -34 40 -51 43 -22 91
-26 121 -10 17 9 19 22 19 106 0 70 4 103 17 127 18 34 24 136 10 175 -8 21
-6 22 35 22 24 0 57 -4 73 -8 42 -12 55 -5 55 30 0 28 -2 30 -27 23 -16 -4
-57 -9 -92 -12 -57 -4 -71 -1 -135 29 -65 30 -79 33 -174 34 -56 1 -105 4
-109 8 -12 12 -68 5 -103 -13z m105 -37 c11 -23 15 -50 12 -73 -3 -23 0 -41 9
-49 19 -18 22 -15 26 21 2 27 8 33 31 35 21 3 27 -1 27 -16 0 -25 49 -36 141
-33 73 3 99 -11 99 -53 0 -35 -46 -76 -86 -76 -24 0 -34 -5 -39 -20 -9 -27
-55 -28 -55 -1 0 13 -8 21 -22 23 -20 3 -23 8 -21 46 2 51 -22 59 -32 10 -4
-18 -12 -39 -17 -45 -12 -16 -48 -17 -48 -3 0 15 -62 -19 -80 -44 -8 -12 -14
-24 -12 -28 1 -5 -2 -8 -8 -8 -5 0 -10 6 -10 13 -1 6 -7 -3 -15 -20 -18 -41
-29 -42 -23 -4 2 17 1 28 -3 25 -15 -9 -55 7 -67 27 -10 15 -10 24 2 42 7 12
17 40 21 61 6 34 4 38 -8 28 -7 -7 -17 -9 -21 -5 -3 4 -3 -8 0 -26 7 -35 -16
-71 -46 -71 -55 0 -98 -94 -84 -182 6 -35 5 -40 -12 -36 -26 5 -37 71 -30 183
6 94 37 240 54 257 13 13 118 26 135 16 10 -5 31 1 59 17 23 14 57 25 74 25
27 0 35 -6 49 -36z m110 17 c-25 -4 -40 -12 -41 -21 -1 -8 -2 -20 -3 -26 -2
-18 -31 -12 -31 7 0 10 -5 21 -11 25 -21 12 14 24 71 22 52 -1 53 -1 15 -7z
m-255 -373 c0 -26 -17 -22 -24 5 -11 40 -7 53 9 31 8 -10 15 -27 15 -36z m40
-49 c0 -5 -4 -9 -10 -9 -5 0 -10 7 -10 16 0 8 5 12 10 9 6 -3 10 -10 10 -16z
m-50 -16 c0 -20 -3 -24 -11 -16 -7 7 -9 19 -6 27 10 24 17 19 17 -11z m337 -5
c-3 -8 -6 -5 -6 6 -1 11 2 17 5 13 3 -3 4 -12 1 -19z m50 -30 c-3 -7 -5 -2 -5
12 0 14 2 19 5 13 2 -7 2 -19 0 -25z m-350 -15 c-3 -10 -5 -4 -5 12 0 17 2 24
5 18 2 -7 2 -21 0 -30z m50 -20 c-3 -10 -5 -4 -5 12 0 17 2 24 5 18 2 -7 2
-21 0 -30z"/>
<path d="M5275 890 c-4 -6 6 -10 22 -10 22 0 25 2 13 10 -19 12 -27 12 -35 0z"/>
<path d="M5280 844 c-11 -12 -11 -18 1 -30 13 -12 18 -12 34 0 16 12 17 16 6
30 -17 20 -25 20 -41 0z"/>
<path d="M5615 838 c-29 -131 -30 -138 -11 -138 14 0 18 7 30 63 5 22 12 28
29 25 19 -3 22 -9 20 -46 -2 -36 1 -43 15 -40 18 3 38 68 28 93 -3 9 -18 15
-36 15 -23 0 -33 6 -40 25 -12 31 -28 32 -35 3z"/>
<path d="M5455 798 c-8 -24 -25 -103 -25 -120 0 -25 26 -23 33 2 4 15 14 20
39 20 59 0 100 51 76 94 -11 20 -116 23 -123 4z m83 -21 c15 -18 -12 -57 -39
-57 -14 0 -19 7 -19 28 0 16 3 32 7 35 11 11 40 8 51 -6z"/>
<path d="M5755 798 c-8 -24 -25 -103 -25 -120 0 -25 27 -23 35 2 5 15 15 20
41 20 24 0 43 8 59 25 28 27 30 37 15 66 -9 15 -22 19 -66 19 -35 0 -56 -5
-59 -12z m89 -23 c6 -18 -27 -55 -49 -55 -15 0 -22 50 -8 63 12 13 51 7 57 -8z"/>
<path d="M5797 773 c-10 -10 -8 -43 2 -43 15 0 42 31 36 41 -7 11 -29 12 -38
2z"/>
<path d="M617 965 c-4 -8 -14 -15 -24 -15 -10 0 -25 -5 -33 -10 -11 -7 -7 -9
15 -7 27 2 64 32 52 43 -2 3 -7 -2 -10 -11z"/>
<path d="M320 966 c0 -2 8 -10 18 -17 15 -13 16 -12 3 4 -13 16 -21 21 -21 13z"/>
<path d="M247 946 c-3 -8 1 -20 9 -26 12 -10 14 -8 14 14 0 28 -14 35 -23 12z"/>
<path d="M454 944 c-18 -14 -18 -15 4 -4 12 6 22 13 22 15 0 8 -5 6 -26 -11z"/>
<path d="M368 928 c6 -6 18 -8 28 -6 14 3 12 5 -9 10 -19 3 -25 2 -19 -4z"/>
<path d="M902 896 c12 -25 24 -44 26 -42 5 6 -28 75 -39 82 -5 3 1 -15 13 -40z"/>
<path d="M1826 903 c3 -16 13 -48 20 -72 8 -24 13 -44 12 -45 -2 -1 -21 -11
-43 -21 -22 -11 -53 -28 -68 -39 -28 -18 -29 -18 -57 3 -16 11 -32 21 -35 21
-3 0 -33 20 -67 45 -34 25 -66 45 -70 45 -4 0 -8 -72 -8 -160 0 -179 -2 -175
70 -120 19 15 59 42 87 59 l53 33 29 -21 c16 -12 33 -21 38 -21 5 0 25 -8 44
-18 32 -16 35 -20 26 -46 -5 -15 -7 -29 -5 -32 3 -2 31 5 64 17 32 11 87 29
121 38 61 18 213 98 213 112 0 16 -175 109 -205 109 -16 0 -91 48 -165 105
-55 42 -62 43 -54 8z"/>
<path d="M4326 903 c3 -16 13 -48 20 -72 8 -24 13 -44 12 -45 -2 -1 -21 -11
-43 -21 -22 -11 -53 -28 -68 -39 -28 -18 -29 -18 -57 3 -16 11 -32 21 -35 21
-3 0 -33 20 -67 45 -34 25 -66 45 -70 45 -4 0 -8 -72 -8 -160 0 -179 -2 -175
70 -120 19 15 59 42 87 59 l53 33 29 -21 c16 -12 33 -21 38 -21 5 0 25 -8 44
-18 32 -16 35 -20 26 -46 -5 -15 -7 -29 -5 -32 3 -2 31 5 64 17 32 11 87 29
121 38 61 18 213 98 213 112 0 16 -175 109 -205 109 -16 0 -91 48 -165 105
-55 42 -62 43 -54 8z"/>
<path d="M265 881 c-3 -5 -1 -12 5 -16 5 -3 10 1 10 9 0 18 -6 21 -15 7z"/>
<path d="M580 880 c0 -5 5 -10 10 -10 6 0 10 5 10 10 0 6 -4 10 -10 10 -5 0
-10 -4 -10 -10z"/>
<path d="M985 839 c-4 -6 -5 -12 -2 -15 2 -3 7 2 10 11 7 17 1 20 -8 4z"/>
<path d="M937 772 c12 -83 9 -270 -5 -319 -23 -77 -85 -130 -216 -180 -33 -13
-47 -21 -31 -18 45 8 166 71 202 104 54 50 67 104 69 293 1 137 -1 168 -13
172 -12 5 -13 -3 -6 -52z"/>
<path d="M320 751 c0 -6 4 -13 10 -16 6 -3 7 1 4 9 -7 18 -14 21 -14 7z"/>
<path d="M366 678 c16 -26 30 -45 32 -43 6 6 -26 60 -43 75 -10 8 -5 -6 11
-32z"/>
<path d="M710 700 c-8 -5 -10 -10 -5 -10 6 0 17 5 25 10 8 5 11 10 5 10 -5 0
-17 -5 -25 -10z"/>
<path d="M407 570 c3 -25 9 -54 14 -65 14 -36 9 25 -6 70 l-14 40 6 -45z"/>
<path d="M422 440 c0 -19 2 -27 5 -17 2 9 2 25 0 35 -3 9 -5 1 -5 -18z"/>
<path d="M970 384 c0 -8 5 -12 10 -9 6 3 10 10 10 16 0 5 -4 9 -10 9 -5 0 -10
-7 -10 -16z"/>
<path d="M427 344 c-3 -4 1 -13 9 -21 19 -20 26 -13 10 9 -7 10 -16 15 -19 12z"/>
<path d="M496 261 c10 -10 23 -16 27 -14 5 3 0 11 -10 19 -27 20 -39 17 -17
-5z"/>
<path d="M567 239 c-4 -16 -3 -18 9 -8 7 6 11 15 8 20 -8 13 -11 11 -17 -12z"/>
<path d="M613 243 c9 -2 23 -2 30 0 6 3 -1 5 -18 5 -16 0 -22 -2 -12 -5z"/>
<path d="M493 200 c2 -9 15 -15 32 -15 17 0 30 6 32 15 4 12 3 12 -5 2 -10
-15 -42 -13 -55 3 -5 6 -7 4 -4 -5z"/>
</g>
</svg>
